<svg width="24" height="24" viewBox="0 0 24 24" fill="none" xmlns="http://www.w3.org/2000/svg">
<path d="M3.07986 18.1401L5.64986 20.7101C5.74986 20.8101 5.87986 20.8601 5.99986 20.8601C6.11986 20.8601 6.25986 20.8101 6.34986 20.7101C7.90986 19.1501 9.94986 18.3701 11.9899 18.3701C14.0299 18.3701 16.0699 19.1501 17.6299 20.7101C17.7299 20.8101 17.8599 20.8601 17.9799 20.8601C18.0999 20.8601 18.2399 20.8101 18.3299 20.7101L20.8999 18.1401C21.2499 17.7901 21.2499 17.2101 20.8999 16.8601L14.8099 10.7701C14.0299 9.9901 13.0099 9.6001 11.9799 9.6001C10.9499 9.6001 9.92986 9.9901 9.14986 10.7701L3.05986 16.8601C2.70986 17.2101 2.70986 17.7901 3.05986 18.1401H3.07986Z" fill="#EB001A"/>
<path d="M6.87014 10.9401L8.11014 9.70014C9.15014 8.66014 10.5301 8.09014 12.0001 8.09014C13.4701 8.09014 14.8501 8.66014 15.8901 9.70014L17.1301 10.9401L21.2101 6.86014C21.4101 6.66014 21.4101 6.35014 21.2101 6.15014L18.3501 3.29014C18.1501 3.09014 17.8401 3.09014 17.6401 3.29014C14.5201 6.41014 9.47014 6.41014 6.36014 3.29014C6.16014 3.09014 5.85014 3.09014 5.65014 3.29014L2.79014 6.15014C2.59014 6.35014 2.59014 6.66014 2.79014 6.86014L6.87014 10.9401Z" fill="#F47F8C"/>
</svg>
