<svg width="950" height="950" viewBox="0 0 950 950" fill="none" xmlns="http://www.w3.org/2000/svg">
<path d="M296.692 567.035L592.93 333.872V152.075C592.93 148.172 592.93 148.172 589.028 144.269L478.363 61.3025C474.46 57.2738 470.557 57.2738 470.557 61.3025L359.893 148.172C358.848 148.137 357.834 148.536 357.094 149.276C356.355 150.016 355.955 151.029 355.99 152.075V405.004L182.125 270.671C178.096 270.671 178.096 266.768 174.193 270.671L63.529 325.94C59.6262 325.94 59.6262 329.969 59.6262 333.872V472.36C59.6262 476.388 59.6262 476.388 63.529 480.291L296.692 665.739V567.035Z" fill="#F47F8C"/>
<path d="M355.99 598.635V871.205C355.658 876.52 357.616 881.723 361.369 885.5C365.123 889.278 370.313 891.269 375.63 890.971H573.29C578.607 891.269 583.798 889.278 587.551 885.5C591.305 881.723 593.263 876.52 592.93 871.205V713.832L885.392 480.039C887.764 477.991 889.363 475.192 889.924 472.108V333.62C889.924 329.717 889.924 329.717 886.021 325.688L774.727 270.671H766.796L359.893 590.704C355.99 594.607 355.99 594.607 355.99 598.635Z" fill="#EB001A"/>
</svg>
